<svg id="THU_Logo_Subline_deutsch_CMYK" xmlns="http://www.w3.org/2000/svg" viewBox="0 0 347.39 347.39">
    <defs>
        <style>.cls-1{fill:#0055a3;}.cls-2{fill:#1d1d1b;}</style>
    </defs>
    <title>THU_Logo_Subline_deutsch_CMYK</title>
    <path class="cls-1"
          d="M450.28,249.37a1.16,1.16,0,0,1-1.42-.84c-8.57-32-37-55.42-70.7-55.42a71.71,71.71,0,0,0-44.42,15.43,1.15,1.15,0,0,1-.81.25l-31.05-1.93a1.17,1.17,0,0,1-.82-1.91,84.49,84.49,0,0,1,65.39-31.26c42.71,0,78.12,32.2,84.63,74.33C451.23,249,450.72,249.26,450.28,249.37Zm-30.62-71.9c-24.14-35.14-70-48.79-108.49-30.26a84.55,84.55,0,0,0-45.37,56.53,1.18,1.18,0,0,0,1.58,1.38l28.81-11.74a1.14,1.14,0,0,0,.62-.57,71.7,71.7,0,0,1,33.32-33.18c30.39-14.63,66.16-5.82,87.75,19.25a1.14,1.14,0,0,0,1.64.14A1,1,0,0,0,419.66,177.47Zm-58.92-49.94c-37-21.18-84.25-13.57-110.88,19.82A84.49,84.49,0,0,0,233.52,218a1.19,1.19,0,0,0,2,.56l20.87-23.07a1.33,1.33,0,0,0,.31-.79,71.68,71.68,0,0,1,15.62-44.36c21-26.36,57.08-33.94,87.41-20.72a1.15,1.15,0,0,0,1.54-.58C361.49,128.58,361.57,128,360.74,127.53ZM286,108.1c-42.53-3-81.8,24.34-91.3,66a84.51,84.51,0,0,0,15.91,70.71,1.18,1.18,0,0,0,2.06-.38l8.79-29.84a1.21,1.21,0,0,0-.06-.85A71.62,71.62,0,0,1,216.23,167c7.5-32.88,36.7-55.35,69.76-56.6a1.16,1.16,0,0,0,1.13-1.19C287.12,108.73,286.94,108.17,286,108.1ZM210.21,123c-39.63,15.73-63.14,57.41-53.64,99.05a84.47,84.47,0,0,0,45,56.8,1.17,1.17,0,0,0,1.68-1.23l-5-30.7a1.24,1.24,0,0,0-.43-.74,71.57,71.57,0,0,1-24.93-39.86c-7.5-32.88,9-65.8,38.3-81.26a1.16,1.16,0,0,0,.5-1.57A1,1,0,0,0,210.21,123Zm-61.79,46.34c-28.89,31.36-32,79.12-5.36,112.51a84.53,84.53,0,0,0,65.21,31.64,1.19,1.19,0,0,0,1-1.85L191.41,286.2a1.23,1.23,0,0,0-.7-.48A71.62,71.62,0,0,1,151,260.62c-21-26.37-20.4-63.21-.75-89.83a1.17,1.17,0,0,0-.23-1.63A1,1,0,0,0,148.42,169.37Zm-35.58,68.55c-12.42,40.79,5.52,85.16,44,103.69a84.51,84.51,0,0,0,72.49.22,1.19,1.19,0,0,0,.09-2.1l-27.14-15.2a1.19,1.19,0,0,0-.84-.13A71.61,71.61,0,0,1,154.72,319c-30.39-14.63-45.8-48.09-39.66-80.6a1.16,1.16,0,0,0-.91-1.37C113.7,237,113.12,237,112.84,237.92Zm-2.3,77.2c6.51,42.14,41.92,74.34,84.63,74.34a84.49,84.49,0,0,0,65.39-31.26,1.18,1.18,0,0,0-.83-1.92l-31-1.93a1.28,1.28,0,0,0-.82.25A71.62,71.62,0,0,1,183.46,370c-33.73,0-62.13-23.46-70.7-55.41a1.18,1.18,0,0,0-1.42-.85C110.89,313.88,110.39,314.18,110.54,315.12ZM142,385.68c24.14,35.14,70,48.78,108.49,30.25a84.44,84.44,0,0,0,45.36-56.53,1.18,1.18,0,0,0-1.58-1.38l-28.81,11.74a1.26,1.26,0,0,0-.62.57,71.57,71.57,0,0,1-33.32,33.18c-30.38,14.63-66.16,5.82-87.74-19.25a1.17,1.17,0,0,0-1.65-.14A1,1,0,0,0,142,385.68Zm58.92,49.93c37,21.18,84.25,13.58,110.88-19.81a84.5,84.5,0,0,0,16.33-70.62,1.17,1.17,0,0,0-2-.55L305.22,367.7a1.23,1.23,0,0,0-.32.79,71.61,71.61,0,0,1-15.63,44.34c-21,26.37-57.08,34-87.41,20.73a1.17,1.17,0,0,0-1.54.59A1,1,0,0,0,200.88,435.61ZM275.63,455c42.52,3,81.79-24.33,91.3-66A84.49,84.49,0,0,0,351,318.37a1.18,1.18,0,0,0-2.06.37l-8.78,29.84a1.2,1.2,0,0,0,.05.85,71.63,71.63,0,0,1,5.17,46.73c-7.5,32.89-36.7,55.36-69.76,56.6a1.17,1.17,0,0,0-1.14,1.2C274.49,454.42,274.67,455,275.63,455Zm75.77-14.93C391,424.39,414.55,382.7,405,341.06a84.46,84.46,0,0,0-45-56.8,1.18,1.18,0,0,0-1.69,1.24l5,30.69a1.22,1.22,0,0,0,.42.74,71.59,71.59,0,0,1,24.93,39.86c7.5,32.88-9,65.8-38.29,81.26a1.18,1.18,0,0,0-.51,1.58A1,1,0,0,0,351.4,440.11Zm61.8-46.33c28.88-31.36,32-79.12,5.35-112.51a84.47,84.47,0,0,0-65.21-31.64,1.18,1.18,0,0,0-1,1.84l17.85,25.47a1.22,1.22,0,0,0,.69.49,71.59,71.59,0,0,1,39.76,25.1c21,26.36,20.4,63.21.76,89.83a1.16,1.16,0,0,0,.23,1.63A1,1,0,0,0,413.2,393.78Zm35.57-68.56c12.42-40.78-5.51-85.16-44-103.69a84.52,84.52,0,0,0-72.48-.21,1.18,1.18,0,0,0-.09,2.09l27.13,15.2a1.27,1.27,0,0,0,.85.14,71.5,71.5,0,0,1,46.7,5.36c30.39,14.63,45.81,48.1,39.66,80.61a1.17,1.17,0,0,0,.92,1.37C447.91,326.19,448.5,326.14,448.77,325.22Z"
          transform="translate(-108.94 -107.88)"/>
</svg>